<svg id="Capa_1" enable-background="new 0 0 512 512" height="512" viewBox="0 0 512 512" width="512" xmlns="http://www.w3.org/2000/svg"><g><path d="m320.76 276.122-53.472-61.111c-5.976-6.83-16.601-6.83-22.577 0l-53.472 61.111c-8.486 9.699-1.599 24.878 11.289 24.878h23.472v165c0 8.284 6.716 15 15 15h30c8.284 0 15-6.716 15-15v-165h23.472c12.887 0 19.775-15.179 11.288-24.878z"/><path d="m420.795 151.902c.137-1.962.205-3.93.205-5.902 0-46.869-38.131-85-85-85-16.293 0-31.98 4.607-45.483 13.191-23.602-27.293-57.901-43.191-94.517-43.191-68.925 0-125 56.075-125 125 0 .212 0 .425.001.637-41.821 14.333-71.001 54.235-71.001 99.363 0 57.897 47.103 105 105 105h91v-30.458c-15.116-2.141-27.974-11.675-34.45-25.947-7.391-16.287-4.666-34.768 7.113-48.228l53.472-61.11c8.545-9.767 20.889-15.367 33.866-15.367s25.321 5.601 33.866 15.367l53.471 61.11c11.778 13.46 14.503 31.94 7.113 48.228-6.476 14.271-19.334 23.805-34.45 25.947v30.458h91c57.897 0 105-47.103 105-105-.001-53.222-39.804-97.322-91.206-104.098z"/></g></svg>